<svg xmlns="http://www.w3.org/2000/svg" width="730.031" height="56.695" viewBox="0 0 730.031 56.695"><path d="M0 56.693V38.267c0-7.828 6.347-14.175 14.173-14.175h41.103c3.914 0 7.088-3.172 7.088-7.086V8.504H0V0h70.867v18.425c0 7.827-6.347 14.174-14.174 14.174H15.59c-3.913 0-7.086 3.173-7.086 7.087v8.504h62.362v8.505L0 56.693z"/><path d="M82.205 56.693V0h70.865v8.504H90.71v15.59h48.1V32.6h-48.1v15.59h62.36v8.504H82.205z"/><path d="M411.027 56.693V0h70.862v8.504h-62.36v15.59h48.1V32.6h-48.1v15.59h62.36v8.504h-70.863z"/><path d="M575.436 56.693V0H646.3v8.504h-62.358v15.59h48.1V32.6h-48.1v15.59H646.3v8.504h-70.864z"/><path d="M221.105 36.85c7.794 0 14.173-6.35 14.173-14.174v-8.504C235.278 6.344 228.93 0 221.105 0L164.41.01v56.686h8.505V36.85h24.542c6.245 0 9.967 4.174 9.967 4.174l14.714 15.67h12.555L216.088 36.85h5.017zm-48.19-8.503V8.507l46.77-.002c3.914 0 7.09 3.173 7.09 7.086v5.67c0 3.915-3.176 7.09-7.09 7.09l-46.77-.003z"/><path d="M303.308 0h-42.52c-7.828 0-14.173 6.35-14.173 14.174V42.52c0 7.828 6.346 14.174 14.173 14.174h42.52c7.828 0 14.176-6.346 14.176-14.174V14.174c0-7.83-6.35-14.173-14.176-14.173zm-41.102 48.19c-3.914 0-7.087-3.175-7.087-7.09V15.59c0-3.914 3.172-7.086 7.086-7.086h39.685c3.915 0 7.09 3.173 7.09 7.087v25.515c0 3.912-3.175 7.086-7.087 7.086h-39.687z"/><path d="M399.686.006L342.996 0c-7.828-.004-14.173 6.347-14.173 14.174v4.252c0 7.827 6.346 14.174 14.173 14.174H384.1c3.913 0 7.085 3.174 7.085 7.088v1.416c0 3.914-3.172 7.088-7.086 7.088h-55.274v8.504h56.69c7.827 0 14.175-6.346 14.175-14.174V38.27c0-7.828-6.347-14.175-14.173-14.175h-41.104c-3.913 0-7.086-3.173-7.086-7.086v-1.42c0-3.913 3.173-7.085 7.086-7.085h55.273v-8.5z"/><path d="M657.638 0h17.306c4.96 0 9.98 2.65 12.537 7.562l18.36 36.214c1.2 2.37 3.802 4.416 7.19 4.416H720V.002h8.505v56.692h-17.307c-5.095 0-10.14-2.825-12.607-7.698L680.334 12.97c-.842-1.658-3.104-4.465-7.217-4.465h-6.978v48.19h-8.504L657.638 0z"/><path d="M493.232 0v56.694h25.772c15.95 0 23.648-11.672 25.623-15.604L565.48.003h-9.89l-18.347 36.224s-5.334 11.967-19.125 11.967h-16.386V.004l-8.5-.003z"/><g><path d="M339.59 125.366c-8.183 0-11.845-6.95-11.845-13.84 0-9.1 4.6-14.75 12.006-14.75 3.793 0 7.414 2.303 9.09 5.756-.095-1.4-.14-4.37-.14-6.68V83.898h2.625v32.527c0 3.61.088 6.32.27 8.29l.01.108h-2.572l-.006-.093c-.107-1.68-.158-3.95-.162-5.55-1.842 3.822-5.38 6.186-9.275 6.186zm-.002-26.293c-5.672 0-9.06 4.554-9.06 12.182 0 8.12 4.523 11.755 9.006 11.755 5.374 0 9.273-4.943 9.273-11.755 0-7.286-3.703-12.182-9.22-12.182z"/><path d="M351.225 83.998v32.43c0 2.91.058 5.98.27 8.3h-2.37c-.105-1.67-.16-4.04-.16-5.768h-.105c-1.67 3.61-5.064 6.308-9.27 6.308-7.647 0-11.745-6.25-11.745-13.74 0-8.353 3.987-14.65 11.906-14.65 3.88 0 7.49 2.368 9.106 5.925h.104c-.104-1.187-.16-4.256-.16-6.947V83.998h2.425m-11.69 39.11c5.17 0 9.373-4.58 9.373-11.853 0-7.164-3.56-12.28-9.32-12.28-5.657 0-9.16 4.523-9.16 12.28 0 6.468 3.288 11.854 9.106 11.854m11.89-39.312H348.602V95.852c0 2.077.037 4.688.114 6.215-1.774-3.252-5.29-5.394-8.962-5.394-7.467 0-12.105 5.69-12.105 14.853 0 6.938 3.693 13.94 11.944 13.94 3.807 0 7.272-2.232 9.177-5.867.012 1.56.062 3.598.16 5.138l.013.188H351.718l-.02-.22c-.184-1.964-.272-4.673-.272-8.28V83.8zm-11.89 39.11c-4.434 0-8.905-3.603-8.905-11.653 0-7.563 3.35-12.08 8.958-12.08 5.455 0 9.12 4.853 9.12 12.08 0 6.753-3.858 11.654-9.174 11.654z"/><path d="M378.16 125.366c-8.554 0-13.46-5.24-13.46-14.377 0-8.37 5.026-14.215 12.223-14.215 6.705 0 10.55 4.69 10.55 12.868 0 .386-.054 1.156-.105 1.68l-.01.09-19.924-.002c.037 7.16 4.12 11.6 10.676 11.6 2.567 0 4.73-.576 7.007-1.872l.14-.08.177 2.652-.06.03c-2.188 1.062-4.68 1.626-7.213 1.626zm6.637-16.257c-.028-6.51-2.84-10.09-7.927-10.09-5.3 0-8.777 3.77-9.32 10.09h17.247z"/><path d="M376.923 96.875c6.572 0 10.45 4.473 10.45 12.77 0 .375-.052 1.13-.106 1.67l-19.934-.002c0 7.166 3.986 11.8 10.775 11.8 2.48 0 4.688-.54 7.057-1.888l.162 2.426c-2.21 1.077-4.688 1.618-7.166 1.618-8.673 0-13.36-5.442-13.36-14.277 0-8.353 5.01-14.115 12.123-14.115m-9.48 12.334h17.455c0-6.683-2.855-10.29-8.027-10.29s-8.888 3.556-9.427 10.29m9.48-12.535c-7.256 0-12.323 5.888-12.323 14.314 0 9.2 4.943 14.477 13.562 14.477 2.547 0 5.055-.565 7.254-1.638l.12-.06-.01-.136-.16-2.426-.022-.316-.276.156c-2.264 1.287-4.408 1.86-6.958 1.86-6.463 0-10.5-4.36-10.574-11.398l19.73.003h.183l.018-.18c.053-.525.108-1.303.108-1.69-.002-8.242-3.884-12.968-10.653-12.968zm-9.263 12.334c.566-6.197 3.998-9.89 9.21-9.89 4.995 0 7.77 3.51 7.826 9.89H367.66z"/><path d="M405.743 125.368c-2.603 0-4.853-.42-7.523-1.408l-.075-.027.41-2.697.123.06c2.488 1.22 4.52 1.718 7.016 1.718 3.154 0 6.526-1.403 6.526-5.342 0-3.172-1.69-4.354-6.454-6.1-3.697-1.38-7.017-2.983-7.017-7.368 0-4.372 3.562-7.426 8.665-7.426 2.264 0 4.418.354 6.23 1.027l.072.026-.297 2.59-.126-.06c-1.87-.89-3.7-1.285-5.936-1.285-2.98 0-5.988 1.552-5.988 5.02 0 2.786 2.23 4.086 6.34 5.508 5.07 1.73 7.234 4.045 7.234 7.744.003 5.54-4.62 8.02-9.2 8.02z"/><path d="M407.415 96.876c2.156 0 4.31.322 6.195 1.02l-.27 2.372c-2.048-.973-3.933-1.293-5.98-1.293-3.287 0-6.09 1.777-6.09 5.117 0 2.746 2.05 4.096 6.41 5.604 4.74 1.617 7.165 3.826 7.165 7.648 0 5.496-4.688 7.924-9.104 7.924-2.747 0-5.01-.486-7.487-1.402l.38-2.482c2.423 1.188 4.472 1.728 7.06 1.728 3.284 0 6.626-1.508 6.626-5.44 0-3.18-1.672-4.418-6.522-6.193-3.606-1.35-6.95-2.91-6.95-7.274 0-4.692 3.936-7.33 8.567-7.33m0-.2c-5.16 0-8.767 3.096-8.767 7.526 0 4.45 3.35 6.067 7.08 7.46 4.717 1.73 6.39 2.897 6.39 6.008 0 3.864-3.318 5.24-6.426 5.24-2.48 0-4.497-.494-6.972-1.706l-.244-.12-.04.27-.38 2.482-.024.16.153.06c2.684.99 4.942 1.413 7.558 1.413 4.48 0 9.304-2.543 9.304-8.123 0-3.75-2.184-6.095-7.302-7.84-4.69-1.62-6.272-2.986-6.272-5.413 0-3.396 2.957-4.918 5.89-4.918 2.22 0 4.036.394 5.892 1.273l.253.12.03-.28.272-2.37.02-.154-.147-.056c-1.826-.677-3.992-1.034-6.268-1.034z"/><path d="M427.842 124.825V97.312h2.623v27.513h-2.623zm-.32-33.995v-3.81h3.27v3.81h-3.27z"/><path d="M430.69 87.12v3.61h-3.07v-3.61h3.07m-.325 10.292v27.313h-2.424V97.412h2.425m.526-10.49h-3.468v4.008h3.47v-4.01zm-.324 10.29H427.742V124.925H430.566V97.21z"/><path d="M454.554 136.785c-3.206 0-6.44-.65-8.876-1.786l-.063-.03.292-2.81.133.075c2.376 1.342 5.52 2.144 8.41 2.144 6.915 0 10.136-3.82 10.136-12.023 0-1.064 0-2.263.087-3.562-1.814 3.782-5.418 6.03-9.686 6.03-6.965 0-11.465-5.39-11.465-13.73 0-8.564 4.693-14.32 11.682-14.32 4.195 0 7.382 1.952 9.475 5.802-.094-1.697-.094-3.854-.094-5.164v-.1h2.624v25.8c-.002 8.688-4.614 13.672-12.656 13.672zm.86-37.712c-5.5 0-9.056 4.718-9.056 12.02 0 7.02 3.39 11.38 8.842 11.38 5.557 0 9.438-4.68 9.438-11.38 0-7.19-3.706-12.02-9.223-12.02z"/><path d="M455.202 96.872c5.117 0 7.92 2.963 9.48 5.926h.106c-.106-1.726-.106-3.986-.106-5.39h2.426V123.11c0 9.427-5.23 13.575-12.556 13.575-3.23 0-6.41-.646-8.834-1.777l.27-2.586c2.48 1.4 5.658 2.156 8.46 2.156 8.135 0 10.234-5.336 10.234-12.123 0-1.133 0-2.424.106-3.826h-.106c-1.615 3.556-5.01 6.194-9.697 6.194-7.164 0-11.365-5.656-11.365-13.633 0-8.24 4.526-14.218 11.582-14.218m-.002 25.7c5.438 0 9.537-4.58 9.537-11.48 0-6.895-3.45-12.118-9.322-12.118-5.762 0-9.156 5.01-9.156 12.118 0 7.006 3.394 11.48 8.94 11.48m.002-25.9c-7.047 0-11.782 5.796-11.782 14.42 0 8.403 4.54 13.833 11.565 13.833 4.142 0 7.663-2.1 9.557-5.655-.06 1.117-.06 2.152-.06 3.087 0 8.135-3.187 11.923-10.034 11.923-2.874 0-6-.796-8.36-2.13l-.266-.15-.032.304-.27 2.587-.016.143.13.06c2.447 1.143 5.697 1.798 8.918 1.798 8.105 0 12.755-5.02 12.755-13.775V97.21h-2.825v.2c0 1.204 0 3.122.072 4.744-2.11-3.64-5.254-5.482-9.352-5.482zm-.002 25.7c-5.393 0-8.74-4.322-8.74-11.28 0-7.238 3.515-11.918 8.955-11.918 5.456 0 9.122 4.79 9.122 11.92 0 6.64-3.84 11.277-9.337 11.277z"/><path d="M482.305 124.826l.002-19.12c0-3.625-.09-6.336-.27-8.286l-.01-.108h2.627l.007.093c.062.838.255 3.622.27 5.35 1.912-3.857 5.313-5.98 9.6-5.98 6.278 0 9.203 3.865 9.203 12.166v15.886h-2.625v-15.24c0-7.562-1.98-10.512-7.064-10.512-2.97 0-5.688 1.555-7.46 4.266-1.313 1.945-1.653 3.418-1.653 7.164v14.324l-2.625-.002z"/><path d="M494.528 96.873c7.166 0 9.104 5.117 9.104 12.066v15.784h-2.426v-15.14c0-7.487-1.94-10.612-7.164-10.612-3.123 0-5.818 1.67-7.543 4.31-1.347 1.993-1.67 3.5-1.67 7.22v14.226h-2.425l.002-19.02c0-2.91-.056-5.98-.27-8.298h2.426c.104 1.455.27 4.04.27 5.55h.11c1.827-3.825 5.112-6.087 9.585-6.087m0-.2c-4.19 0-7.545 2.012-9.504 5.68-.037-1.73-.207-4.18-.265-4.956l-.015-.187h-2.833l.02.22c.185 1.946.272 4.654.272 8.277l-.002 19.02v.2H485.026V110.502c0-3.722.336-5.184 1.636-7.105 1.753-2.686 4.44-4.224 7.377-4.224 5.01 0 6.963 2.92 6.963 10.412v15.34H503.83V108.94c0-5.266-.964-12.267-9.302-12.267z"/><path d="M541.557 125.368c-2.604 0-4.854-.42-7.52-1.408l-.077-.027.41-2.697.122.06c2.487 1.22 4.52 1.718 7.013 1.718 3.155 0 6.527-1.403 6.527-5.342 0-3.172-1.69-4.354-6.452-6.1-3.697-1.38-7.015-2.98-7.015-7.368 0-4.372 3.562-7.426 8.663-7.426 2.265 0 4.42.354 6.23 1.027l.072.026-.294 2.59-.127-.06c-1.87-.89-3.702-1.285-5.94-1.285-2.978 0-5.985 1.552-5.985 5.02 0 2.787 2.23 4.087 6.344 5.508 5.068 1.73 7.23 4.046 7.23 7.744 0 5.54-4.62 8.02-9.203 8.02z"/><path d="M543.23 96.876c2.15 0 4.31.322 6.19 1.02l-.27 2.372c-2.047-.973-3.934-1.293-5.98-1.293-3.286 0-6.085 1.777-6.085 5.117 0 2.746 2.045 4.096 6.41 5.604 4.74 1.617 7.166 3.826 7.166 7.648 0 5.496-4.687 7.924-9.103 7.924-2.748 0-5.013-.486-7.486-1.402l.378-2.482c2.424 1.188 4.47 1.728 7.057 1.728 3.287 0 6.627-1.508 6.627-5.44 0-3.18-1.67-4.418-6.518-6.193-3.61-1.35-6.95-2.91-6.95-7.274 0-4.692 3.93-7.33 8.565-7.33m0-.2c-5.16 0-8.767 3.096-8.767 7.526 0 4.452 3.35 6.07 7.08 7.46 4.714 1.73 6.387 2.897 6.387 6.008 0 3.864-3.318 5.24-6.427 5.24-2.477 0-4.495-.494-6.97-1.706l-.244-.12-.04.27-.378 2.482-.025.16.153.06c2.68.99 4.938 1.413 7.557 1.413 4.48 0 9.306-2.543 9.306-8.123 0-3.748-2.185-6.094-7.303-7.84-4.69-1.62-6.273-2.985-6.273-5.413 0-3.396 2.956-4.918 5.886-4.918 2.222 0 4.04.394 5.896 1.273l.252.12.03-.28.27-2.37.02-.154-.146-.056c-1.827-.677-3.993-1.034-6.267-1.034z"/><g><path d="M572.37 125.15c-4.912 0-7.103-2.506-7.103-8.126v-17.25h-5.604v-2.3h5.604v-6.168l2.623-.877v7.042h7.058v2.3h-7.058v17.25c0 3.957 1.483 5.88 4.533 5.88.944 0 1.735-.098 2.76-.583l.136-.064.115 2.324-.067.025c-1.018.377-1.943.545-2.998.545z"/><path d="M567.792 90.568v7.004h7.057v2.102h-7.058v17.35c0 4.36 1.777 5.98 4.633 5.98.974 0 1.777-.105 2.802-.592l.106 2.103c-1.02.378-1.938.538-2.963.538-5.226 0-7.002-2.963-7.002-8.025V99.676h-5.604v-2.103h5.604V91.38l2.424-.812m.2-.277l-.264.09-2.425.81-.137.047v6.139h-5.604V99.878h5.604v17.148c0 5.61 2.29 8.227 7.202 8.227 1.066 0 2.002-.17 3.032-.552l.138-.05-.007-.146-.105-2.102-.016-.3-.272.13c-1.006.476-1.785.57-2.716.57-3.023 0-4.433-1.836-4.433-5.777v-17.15h7.054V97.373H567.99V90.29h.002z"/></g><g><path d="M596.56 125.366c-3.47 0-6.163-1.434-7.786-4.147-1.1-1.868-1.47-3.92-1.47-8.133V97.31h2.623v15.398c0 7.45 1.996 10.353 7.12 10.353 2.97 0 5.69-1.555 7.458-4.264 1.314-1.938 1.654-3.412 1.654-7.165V97.31h2.625v19.217h-.005c.002 3.56.09 6.24.27 8.19l.01.108h-2.57l-.01-.09c-.103-1.1-.205-3.99-.216-5.552-1.848 3.993-5.287 6.186-9.703 6.186z"/><path d="M608.686 97.408v19.018h-.005c0 2.91.06 5.98.272 8.3h-2.37c-.108-1.128-.218-4.253-.218-5.766h-.107c-1.774 3.986-5.227 6.308-9.696 6.308-3.444 0-6.088-1.402-7.7-4.1-1.076-1.83-1.455-3.878-1.455-8.08v-15.68h2.424v15.302c0 7.488 1.993 10.45 7.218 10.45 3.125 0 5.82-1.67 7.543-4.308 1.352-1.992 1.67-3.504 1.67-7.22V97.407h2.426m.2-.2H606.06V111.633c0 3.73-.337 5.19-1.637 7.107-1.75 2.684-4.438 4.22-7.377 4.22-5.05 0-7.02-2.873-7.02-10.25v-15.5H587.204V113.086c0 4.23.374 6.296 1.48 8.183 1.646 2.747 4.367 4.197 7.876 4.197 4.247 0 7.718-2.126 9.607-5.856.023 1.618.117 4.128.213 5.136l.018.182h2.775l-.02-.22c-.18-1.935-.27-4.592-.272-8.117l.005-.162v-19.22z"/></g><g><path d="M633.948 125.366c-8.183 0-11.845-6.95-11.845-13.84 0-9.1 4.6-14.75 12.005-14.75 3.793 0 7.414 2.304 9.09 5.76-.1-1.385-.142-4.286-.142-6.684V83.898h2.623v32.527c0 3.63.09 6.34.272 8.29l.01.108h-2.574l-.006-.093c-.106-1.667-.158-3.944-.162-5.556-1.84 3.827-5.376 6.192-9.272 6.192zm0-26.293c-5.672 0-9.06 4.554-9.06 12.182 0 8.12 4.522 11.755 9.005 11.755 5.374 0 9.275-4.943 9.275-11.755.002-7.286-3.704-12.182-9.22-12.182z"/><path d="M645.58 83.998l.003 32.43c0 2.91.055 5.98.27 8.3h-2.37c-.106-1.67-.16-4.04-.16-5.768h-.108c-1.67 3.61-5.062 6.308-9.266 6.308-7.653 0-11.745-6.25-11.745-13.74 0-8.353 3.984-14.65 11.904-14.65 3.878 0 7.486 2.368 9.103 5.925h.107c-.107-1.187-.162-4.256-.162-6.947V83.998h2.423m-11.685 39.11c5.173 0 9.375-4.58 9.375-11.853 0-7.164-3.56-12.28-9.32-12.28-5.658 0-9.16 4.523-9.16 12.28 0 6.468 3.286 11.854 9.105 11.854m11.886-39.312H642.958V95.852c0 2.15.035 4.71.113 6.216-1.774-3.253-5.29-5.395-8.962-5.395-7.467 0-12.104 5.69-12.104 14.853 0 6.938 3.693 13.94 11.944 13.94 3.806 0 7.27-2.233 9.176-5.872.01 1.57.062 3.613.16 5.144l.012.188H646.074l-.02-.22c-.183-1.946-.27-4.655-.27-8.28L645.78 84v-.2zm-11.885 39.11c-4.433 0-8.904-3.603-8.904-11.653 0-7.563 3.35-12.08 8.96-12.08 5.456 0 9.12 4.853 9.12 12.08 0 6.753-3.86 11.654-9.175 11.654z"/></g><g><path d="M661.055 124.825V97.312h2.623v27.513h-2.623zm-.32-33.995v-3.81h3.27v3.81h-3.27z"/><path d="M663.904 87.12v3.61h-3.07v-3.61h3.07m-.326 10.292v27.313h-2.424V97.412h2.424m.526-10.49h-3.47v4.008h3.47v-4.01zm-.325 10.29h-2.825V124.925H663.78V97.21z"/></g><g><path d="M689.602 125.365c-7.535 0-12.6-5.735-12.6-14.272 0-8.564 5.17-14.32 12.868-14.32 7.258.002 12.326 5.913 12.326 14.377 0 8.502-5.06 14.215-12.594 14.215zm-.057-26.293c-5.896 0-9.705 4.762-9.705 12.13 0 7.172 3.832 11.808 9.762 11.808 5.96 0 9.812-4.72 9.812-12.02-.002-7.352-3.783-11.918-9.87-11.918z"/><path d="M689.87 96.872c7.165 0 12.227 5.71 12.227 14.276 0 8.46-5.114 14.117-12.495 14.117-7.384 0-12.5-5.715-12.5-14.174 0-8.455 5.173-14.218 12.768-14.218m-.268 26.237c5.98 0 9.91-4.74 9.91-12.122 0-7.383-3.88-12.016-9.967-12.016-5.924 0-9.805 4.796-9.805 12.23 0 7.22 3.934 11.907 9.862 11.907m.268-26.438c-7.757 0-12.97 5.796-12.97 14.42 0 8.465 5.224 14.374 12.7 14.374 7.595 0 12.695-5.754 12.695-14.316.002-8.524-5.107-14.477-12.425-14.478zm-.268 26.237c-5.868 0-9.66-4.597-9.66-11.71 0-7.305 3.77-12.026 9.604-12.027 6.024 0 9.768 4.527 9.768 11.815-.002 7.242-3.814 11.92-9.712 11.92z"/></g><g><path d="M720.685 125.368c-2.604 0-4.854-.42-7.523-1.408l-.076-.027.41-2.697.122.06c2.49 1.22 4.52 1.718 7.015 1.718 3.155 0 6.527-1.403 6.527-5.342 0-3.172-1.69-4.354-6.454-6.1-3.697-1.38-7.015-2.98-7.015-7.368 0-4.372 3.563-7.426 8.667-7.426 2.262 0 4.416.354 6.23 1.027l.072.026-.295 2.59-.127-.06c-1.87-.89-3.7-1.285-5.938-1.285-2.98 0-5.988 1.552-5.988 5.02 0 2.787 2.23 4.087 6.346 5.508 5.07 1.73 7.232 4.046 7.232 7.744 0 5.54-4.623 8.02-9.205 8.02z"/><path d="M722.356 96.876c2.15 0 4.31.322 6.192 1.02l-.27 2.372c-2.047-.973-3.937-1.293-5.98-1.293-3.285 0-6.088 1.777-6.088 5.117 0 2.746 2.047 4.096 6.412 5.604 4.74 1.617 7.166 3.826 7.166 7.648 0 5.496-4.688 7.924-9.104 7.924-2.747 0-5.013-.486-7.488-1.402l.377-2.482c2.426 1.188 4.473 1.728 7.06 1.728 3.286 0 6.626-1.508 6.626-5.44 0-3.18-1.67-4.418-6.52-6.193-3.61-1.35-6.95-2.91-6.95-7.274 0-4.692 3.933-7.33 8.566-7.33m0-.2c-5.16 0-8.768 3.096-8.768 7.526 0 4.45 3.35 6.07 7.08 7.46 4.715 1.73 6.39 2.897 6.39 6.008 0 3.864-3.32 5.24-6.428 5.24-2.476 0-4.495-.494-6.97-1.706l-.246-.12-.04.27-.377 2.482-.025.16.153.06c2.68.99 4.94 1.413 7.56 1.413 4.48 0 9.305-2.543 9.305-8.123 0-3.748-2.185-6.094-7.303-7.84-4.69-1.62-6.275-2.985-6.275-5.413 0-3.396 2.957-4.918 5.888-4.918 2.222 0 4.04.394 5.896 1.273l.253.12.03-.28.27-2.37.02-.154-.147-.056c-1.828-.677-3.994-1.034-6.267-1.034z"/></g></g></svg>
